<svg width="24" height="24" viewBox="0 0 24 24" fill="none" xmlns="http://www.w3.org/2000/svg">
<path d="M10.5657 7.43431C10.2533 7.1219 9.74673 7.1219 9.43431 7.43431C9.1219 7.74673 9.1219 8.25327 9.43431 8.56569L10.5657 7.43431ZM14 12L14.5657 12.5657C14.8781 12.2533 14.8781 11.7467 14.5657 11.4343L14 12ZM9.43431 15.4343C9.1219 15.7467 9.1219 16.2533 9.43431 16.5657C9.74673 16.8781 10.2533 16.8781 10.5657 16.5657L9.43431 15.4343ZM9.43431 8.56569L13.4343 12.5657L14.5657 11.4343L10.5657 7.43431L9.43431 8.56569ZM13.4343 11.4343L9.43431 15.4343L10.5657 16.5657L14.5657 12.5657L13.4343 11.4343Z" fill="#1A1B23"/>
</svg>
