<svg width="24" height="24" viewBox="0 0 24 24" fill="none" xmlns="http://www.w3.org/2000/svg">
<path d="M13.4343 16.5657C13.7467 16.8781 14.2533 16.8781 14.5657 16.5657C14.8781 16.2533 14.8781 15.7467 14.5657 15.4343L13.4343 16.5657ZM10 12L9.43431 11.4343C9.1219 11.7467 9.1219 12.2533 9.43431 12.5657L10 12ZM14.5657 8.56569C14.8781 8.25327 14.8781 7.74673 14.5657 7.43431C14.2533 7.1219 13.7467 7.1219 13.4343 7.43431L14.5657 8.56569ZM14.5657 15.4343L10.5657 11.4343L9.43431 12.5657L13.4343 16.5657L14.5657 15.4343ZM10.5657 12.5657L14.5657 8.56569L13.4343 7.43431L9.43431 11.4343L10.5657 12.5657Z" fill="#1A1B23"/>
</svg>
