<svg width="17" height="16" viewBox="0 0 17 16" fill="none" xmlns="http://www.w3.org/2000/svg">
<path d="M5.67253 13.2012C6.55352 13.7093 7.5757 14 8.66578 14C11.9795 14 14.666 11.3137 14.666 8C14.666 4.68629 11.9797 2 8.66602 2C5.35231 2 2.66602 4.68629 2.66602 8C2.66602 9.09008 2.95671 10.1123 3.46481 10.9933L3.46678 10.9967C3.51567 11.0814 3.54032 11.1242 3.55149 11.1646C3.56202 11.2027 3.56496 11.2369 3.56226 11.2764C3.55937 11.3187 3.54508 11.3627 3.5158 11.4505L3.00326 12.9882L3.00261 12.9902C2.89447 13.3146 2.8404 13.4768 2.87894 13.5849C2.91254 13.6792 2.98714 13.7535 3.08138 13.7871C3.18923 13.8256 3.35071 13.7718 3.67371 13.6641L3.67773 13.6626L5.21538 13.1501C5.30293 13.1209 5.34744 13.1061 5.38974 13.1032C5.42918 13.1005 5.4632 13.1041 5.5013 13.1146C5.54181 13.1258 5.58457 13.1504 5.66977 13.1996L5.67253 13.2012Z" stroke="#1A1B23" stroke-width="1.4" stroke-linecap="round" stroke-linejoin="round"/>
</svg>
