<svg width="16" height="16" viewBox="0 0 16 16" fill="none" xmlns="http://www.w3.org/2000/svg">
<path d="M9.375 6.55556V11.6111M6.625 6.55556V11.6111M3.875 3.66667V12.1889C3.875 12.9979 3.875 13.4021 4.02487 13.711C4.15669 13.9828 4.36689 14.2042 4.62561 14.3427C4.91945 14.5 5.30431 14.5 6.07288 14.5H9.92712C10.6957 14.5 11.08 14.5 11.3738 14.3427C11.6326 14.2042 11.8435 13.9828 11.9753 13.711C12.125 13.4024 12.125 12.9985 12.125 12.1911V3.66667M3.875 3.66667H5.25M3.875 3.66667H2.5M5.25 3.66667H10.75M5.25 3.66667C5.25 2.99364 5.25 2.65729 5.35467 2.39185C5.49422 2.03792 5.76172 1.75655 6.09863 1.60995C6.35132 1.5 6.67183 1.5 7.3125 1.5H8.6875C9.32817 1.5 9.6485 1.5 9.90119 1.60995C10.2381 1.75655 10.5057 2.03792 10.6453 2.39185C10.7499 2.65729 10.75 2.99364 10.75 3.66667M10.75 3.66667H12.125M12.125 3.66667H13.5" stroke="#2032B0" stroke-width="1.4" stroke-linecap="round" stroke-linejoin="round"/>
</svg>
