<svg width="24" height="24" viewBox="0 0 24 24" fill="" xmlns="http://www.w3.org/2000/svg">
<path d="M14.8 10C14.8 9.55817 14.4418 9.2 14 9.2C13.5582 9.2 13.2 9.55817 13.2 10H14.8ZM13.2 17C13.2 17.4418 13.5582 17.8 14 17.8C14.4418 17.8 14.8 17.4418 14.8 17H13.2ZM10.8 10C10.8 9.55817 10.4418 9.2 10 9.2C9.55817 9.2 9.2 9.55817 9.2 10H10.8ZM9.2 17C9.2 17.4418 9.55817 17.8 10 17.8C10.4418 17.8 10.8 17.4418 10.8 17H9.2ZM7.0918 20.7822L7.45499 20.0694L7.45499 20.0694L7.0918 20.7822ZM6.21799 19.9076L5.50518 20.2708L5.50518 20.2708L6.21799 19.9076ZM17.7822 19.9076L18.495 20.2708V20.2708L17.7822 19.9076ZM16.9074 20.7822L16.5442 20.0694V20.0694L16.9074 20.7822ZM4 5.2C3.55817 5.2 3.2 5.55817 3.2 6C3.2 6.44183 3.55817 6.8 4 6.8V5.2ZM20 6.8C20.4418 6.8 20.8 6.44183 20.8 6C20.8 5.55817 20.4418 5.2 20 5.2V6.8ZM8.15224 4.23486L7.41314 3.92872L8.15224 4.23486ZM9.23438 3.15224L8.92823 2.41314V2.41314L9.23438 3.15224ZM15.8477 4.23486L15.1086 4.54101V4.54101L15.8477 4.23486ZM14.7654 3.15224L15.0715 2.41314V2.41314L14.7654 3.15224ZM13.2 10V17H14.8V10H13.2ZM9.2 10V17H10.8V10H9.2ZM6.8 17.8V6H5.2V17.8H6.8ZM6 6.8H8V5.2H6V6.8ZM8 6.8H16V5.2H8V6.8ZM16 6.8H18V5.2H16V6.8ZM9.19691 20.2C8.62476 20.2 8.24354 20.1994 7.95057 20.1754C7.66689 20.1523 7.5371 20.1113 7.45499 20.0694L6.72861 21.495C7.0739 21.671 7.43771 21.7389 7.82025 21.7701C8.19351 21.8006 8.65114 21.8 9.19691 21.8V20.2ZM5.2 17.8C5.2 18.3468 5.19938 18.805 5.22991 19.1786C5.2612 19.5615 5.32917 19.9253 5.50518 20.2708L6.93079 19.5444C6.88882 19.462 6.84779 19.3321 6.82459 19.0482C6.80062 18.755 6.8 18.3733 6.8 17.8H5.2ZM7.45499 20.0694C7.22989 19.9547 7.0462 19.7709 6.93079 19.5444L5.50518 20.2708C5.77327 20.7969 6.20105 21.2262 6.72861 21.495L7.45499 20.0694ZM17.2 17.8031C17.2 18.3753 17.1994 18.7563 17.1754 19.0491C17.1523 19.3325 17.1113 19.4622 17.0694 19.5444L18.495 20.2708C18.6709 19.9256 18.7388 19.562 18.7701 19.1795C18.8006 18.8064 18.8 18.3488 18.8 17.8031H17.2ZM14.8031 21.8C15.3488 21.8 15.8063 21.8006 16.1794 21.7701C16.5619 21.7388 16.9254 21.6709 17.2706 21.495L16.5442 20.0694C16.462 20.1113 16.3323 20.1523 16.049 20.1754C15.7562 20.1994 15.3753 20.2 14.8031 20.2V21.8ZM17.0694 19.5444C16.9545 19.77 16.7702 19.9543 16.5442 20.0694L17.2706 21.495C17.7973 21.2267 18.2265 20.7978 18.495 20.2708L17.0694 19.5444ZM4 6.8H6V5.2H4V6.8ZM18 6.8H20V5.2H18V6.8ZM11 3.8H13V2.2H11V3.8ZM8.8 6C8.8 5.52311 8.80043 5.20557 8.81717 4.96027C8.83342 4.72218 8.86232 4.61108 8.89134 4.54101L7.41314 3.92872C7.28992 4.22619 7.2427 4.53171 7.22089 4.85134C7.19957 5.16375 7.2 5.54501 7.2 6H8.8ZM11 2.2C10.545 2.2 10.1636 2.19957 9.85112 2.22088C9.53144 2.24269 9.22576 2.2899 8.92823 2.41314L9.54052 3.89134C9.61054 3.86234 9.72172 3.83343 9.96 3.81718C10.2054 3.80043 10.5231 3.8 11 3.8V2.2ZM8.89134 4.54101C9.01328 4.24662 9.24684 4.01299 9.54052 3.89134L8.92823 2.41314C8.2418 2.69747 7.69717 3.24299 7.41314 3.92872L8.89134 4.54101ZM16.8 6C16.8 5.54496 16.8004 5.1637 16.7791 4.85126C16.7572 4.53161 16.71 4.22613 16.5868 3.92872L15.1086 4.54101C15.1376 4.61114 15.1665 4.72228 15.1828 4.96035C15.1995 5.20562 15.2 5.52316 15.2 6H16.8ZM13 3.8C13.4769 3.8 13.7945 3.80043 14.0399 3.81717C14.278 3.83343 14.3892 3.86233 14.4592 3.89134L15.0715 2.41314C14.774 2.28991 14.4684 2.24269 14.1488 2.22089C13.8363 2.19957 13.455 2.2 13 2.2V3.8ZM16.5868 3.92872C16.3027 3.24288 15.7578 2.69742 15.0715 2.41314L14.4592 3.89134C14.753 4.01304 14.9867 4.24674 15.1086 4.54101L16.5868 3.92872ZM17.2 6V17.8031H18.8V6H17.2ZM14.8031 20.2H9.19691V21.8H14.8031V20.2Z" fill=""/>
</svg>
