<svg width="16" height="5" viewBox="0 0 16 5" fill="none" xmlns="http://www.w3.org/2000/svg">
<path d="M1.92806 4.15575C1.44273 4.15575 1.02673 3.99108 0.680062 3.66175C0.333396 3.31508 0.160063 2.88175 0.160063 2.36175C0.160063 1.85908 0.333396 1.44308 0.680062 1.11375C1.02673 0.767084 1.44273 0.59375 1.92806 0.59375C2.4134 0.59375 2.82073 0.758416 3.15006 1.08775C3.4794 1.41708 3.64406 1.84175 3.64406 2.36175C3.64406 2.88175 3.47073 3.31508 3.12406 3.66175C2.79473 3.99108 2.39606 4.15575 1.92806 4.15575Z" fill="#9C9DB8"/>
<path d="M8.01869 4.15575C7.53335 4.15575 7.11735 3.99108 6.77069 3.66175C6.42402 3.31508 6.25069 2.88175 6.25069 2.36175C6.25069 1.85908 6.42402 1.44308 6.77069 1.11375C7.11735 0.767084 7.53335 0.59375 8.01869 0.59375C8.50402 0.59375 8.91136 0.758416 9.24069 1.08775C9.57002 1.41708 9.73469 1.84175 9.73469 2.36175C9.73469 2.88175 9.56135 3.31508 9.21469 3.66175C8.88535 3.99108 8.48669 4.15575 8.01869 4.15575Z" fill="#9C9DB8"/>
<path d="M14.1093 4.15575C13.624 4.15575 13.208 3.99108 12.8613 3.66175C12.5146 3.31508 12.3413 2.88175 12.3413 2.36175C12.3413 1.85908 12.5146 1.44308 12.8613 1.11375C13.208 0.767084 13.624 0.59375 14.1093 0.59375C14.5946 0.59375 15.002 0.758416 15.3313 1.08775C15.6606 1.41708 15.8253 1.84175 15.8253 2.36175C15.8253 2.88175 15.652 3.31508 15.3053 3.66175C14.976 3.99108 14.5773 4.15575 14.1093 4.15575Z" fill="#9C9DB8"/>
</svg>
