<svg width="24" height="24" viewBox="0 0 24 24" fill="" xmlns="http://www.w3.org/2000/svg">
<path d="M9.33351 6.57778C9.77533 6.57778 10.1335 6.21961 10.1335 5.77778C10.1335 5.33595 9.77533 4.97778 9.33351 4.97778V6.57778ZM4.19377 6.74826L3.48096 6.38507L4.19377 6.74826ZM4.97049 5.97154L5.33368 6.68435H5.33368L4.97049 5.97154ZM4.97049 19.8064L5.33368 19.0936L5.33368 19.0936L4.97049 19.8064ZM4.19377 19.0292L3.48096 19.3924L3.48096 19.3924L4.19377 19.0292ZM18.0286 19.029L18.7415 19.3922L18.0286 19.029ZM17.251 19.8064L16.8878 19.0936L17.251 19.8064ZM9.33333 14.6667H8.53333C8.53333 15.1085 8.89151 15.4667 9.33333 15.4667V14.6667ZM9.33333 12L8.76765 11.4343C8.61762 11.5843 8.53333 11.7878 8.53333 12H9.33333ZM17.3333 4L17.899 3.43431C17.5866 3.1219 17.0801 3.1219 16.7676 3.43431L17.3333 4ZM20 6.66667L20.5657 7.23235C20.8781 6.91993 20.8781 6.4134 20.5657 6.10098L20 6.66667ZM12 14.6667V15.4667C12.2122 15.4667 12.4157 15.3824 12.5657 15.2324L12 14.6667ZM19.0222 14.6667C19.0222 14.2248 18.6641 13.8667 18.2222 13.8667C17.7804 13.8667 17.4222 14.2248 17.4222 14.6667H19.0222ZM4.8 17.1557V8.6224H3.2V17.1557H4.8ZM6.84462 6.57778H9.33351V4.97778H6.84462V6.57778ZM4.8 8.6224C4.8 8.11138 4.80062 7.77612 4.82157 7.51969C4.84175 7.27256 4.87675 7.16998 4.90657 7.11146L3.48096 6.38507C3.31701 6.70684 3.25513 7.0435 3.22688 7.38944C3.19938 7.72611 3.2 8.13776 3.2 8.6224H4.8ZM6.84462 4.97778C6.35999 4.97778 5.94833 4.97716 5.61167 5.00465C5.26572 5.03291 4.92906 5.09479 4.60729 5.25874L5.33368 6.68435C5.3922 6.65453 5.49478 6.61953 5.74192 6.59934C5.99834 6.5784 6.3336 6.57778 6.84462 6.57778V4.97778ZM4.90657 7.11146C5.00031 6.92748 5.1497 6.77809 5.33368 6.68435L4.60729 5.25874C4.12225 5.50588 3.7281 5.90003 3.48096 6.38507L4.90657 7.11146ZM6.8417 19.2C6.33165 19.2 5.99704 19.1994 5.74108 19.1785C5.49441 19.1583 5.39205 19.1234 5.33368 19.0936L4.60729 20.5192C4.92884 20.6831 5.26523 20.7449 5.61076 20.7731C5.947 20.8006 6.35804 20.8 6.8417 20.8V19.2ZM3.2 17.1557C3.2 17.6403 3.19938 18.0519 3.22688 18.3884C3.25515 18.7343 3.31705 19.0707 3.48096 19.3924L4.90657 18.666C4.87671 18.6074 4.84174 18.5049 4.82156 18.2581C4.80062 18.0018 4.8 17.6668 4.8 17.1557H3.2ZM5.33368 19.0936C5.15015 19.0001 5.00054 18.8505 4.90657 18.666L3.48096 19.3924C3.72787 19.877 4.1218 20.2719 4.6073 20.5192L5.33368 19.0936ZM17.4222 17.1583C17.4222 17.6684 17.4216 18.0028 17.4007 18.2586C17.3805 18.5051 17.3456 18.6073 17.3158 18.6658L18.7415 19.3922C18.9053 19.0707 18.9671 18.7345 18.9954 18.389C19.0228 18.0529 19.0222 17.6419 19.0222 17.1583H17.4222ZM15.3805 20.8C15.8642 20.8 16.2751 20.8006 16.6111 20.7731C16.9566 20.7449 17.2928 20.683 17.6142 20.5192L16.8878 19.0936C16.8294 19.1234 16.7271 19.1583 16.4807 19.1785C16.225 19.1994 15.8906 19.2 15.3805 19.2V20.8ZM17.3158 18.6658C17.2222 18.8496 17.072 18.9998 16.8878 19.0936L17.6142 20.5192C18.0991 20.2722 18.4942 19.8774 18.7415 19.3922L17.3158 18.6658ZM10.1333 14.6667V12H8.53333V14.6667H10.1333ZM9.89902 12.5657L15.2324 7.23235L14.101 6.10098L8.76765 11.4343L9.89902 12.5657ZM15.2324 7.23235L17.899 4.56569L16.7676 3.43431L14.101 6.10098L15.2324 7.23235ZM16.7676 4.56569L19.4343 7.23235L20.5657 6.10098L17.899 3.43431L16.7676 4.56569ZM19.4343 6.10098L16.7676 8.76765L17.899 9.89902L20.5657 7.23235L19.4343 6.10098ZM16.7676 8.76765L11.4343 14.101L12.5657 15.2324L17.899 9.89902L16.7676 8.76765ZM12 13.8667H9.33333V15.4667H12V13.8667ZM14.101 7.23235L16.7676 9.89902L17.899 8.76765L15.2324 6.10098L14.101 7.23235ZM17.4222 14.6667V17.1583H19.0222V14.6667H17.4222ZM15.3805 19.2H6.8417V20.8H15.3805V19.2Z" fill=""/>
</svg>
