<svg width="24" height="25" viewBox="0 0 24 25" fill="none" xmlns="http://www.w3.org/2000/svg">
<rect width="24" height="24" transform="translate(0 0.785156)" fill="white"/>
<path d="M23.9328 7.8372C23.8752 6.55938 23.6687 5.68508 23.3759 4.92127C23.0686 4.13344 22.6605 3.4609 21.9932 2.79797C21.3259 2.13504 20.6585 1.7171 19.8712 1.41446C19.1078 1.11662 18.234 0.91486 16.957 0.857214C15.6751 0.799568 15.2671 0.785156 12.012 0.785156C8.75215 0.785156 8.34407 0.799568 7.06701 0.857214C5.78996 0.91486 4.91618 1.12143 4.15283 1.41446C3.36067 1.72191 2.68854 2.13023 2.02601 2.79797C1.36347 3.4657 0.945791 4.13344 0.64333 4.92127C0.350471 5.68508 0.14403 6.55938 0.0864187 7.8372C0.0288072 9.11982 0.0144043 9.52815 0.0144043 12.7852C0.0144043 16.047 0.0288072 16.4553 0.0864187 17.7331C0.14403 19.0109 0.350471 19.8852 0.64333 20.649C0.950592 21.4369 1.35867 22.1094 2.02601 22.7723C2.68854 23.4401 3.36067 23.8532 4.14803 24.1559C4.91138 24.4537 5.78516 24.6555 7.06221 24.7131C8.34407 24.7707 8.75215 24.7852 12.0072 24.7852C15.2671 24.7852 15.6751 24.7707 16.9522 24.7131C18.2292 24.6555 19.103 24.4489 19.8664 24.1559C20.6537 23.8484 21.3259 23.4401 21.9884 22.7723C22.6509 22.1046 23.0686 21.4369 23.3711 20.649C23.6687 19.8852 23.8704 19.0109 23.928 17.7331C23.9856 16.4505 24 16.0422 24 12.7852C24 9.52815 23.9904 9.11502 23.9328 7.8372ZM21.7772 17.637C21.7243 18.8092 21.5275 19.4481 21.3643 19.866C21.1482 20.4233 20.8842 20.8268 20.4617 21.2495C20.0392 21.6723 19.6407 21.9269 19.079 22.1527C18.6565 22.316 18.018 22.5129 16.8514 22.5658C15.5887 22.6234 15.2094 22.6378 12.0024 22.6378C8.79536 22.6378 8.41608 22.6234 7.15343 22.5658C5.982 22.5129 5.34347 22.316 4.92579 22.1527C4.36888 21.9365 3.96559 21.6723 3.54311 21.2495C3.12063 20.8268 2.86617 20.4281 2.64053 19.866C2.4773 19.4433 2.28046 18.8044 2.22765 17.637C2.17004 16.3736 2.15563 15.9941 2.15563 12.7852C2.15563 9.57619 2.17004 9.19669 2.22765 7.93328C2.28046 6.76114 2.4773 6.12223 2.64053 5.70429C2.85657 5.14705 3.12063 4.74352 3.54311 4.32079C3.96559 3.89805 4.36407 3.64344 4.92579 3.41766C5.34827 3.25433 5.9868 3.05737 7.15343 3.00453C8.41608 2.94689 8.79536 2.93247 12.0024 2.93247C15.2094 2.93247 15.5887 2.94689 16.8514 3.00453C18.0228 3.05737 18.6613 3.25433 19.079 3.41766C19.6359 3.63384 20.0392 3.89805 20.4617 4.32079C20.8842 4.74352 21.1386 5.14224 21.3643 5.70429C21.5275 6.12703 21.7243 6.76594 21.7772 7.93328C21.8348 9.19669 21.8492 9.57619 21.8492 12.7852C21.8492 15.9941 21.83 16.3736 21.7772 17.637Z" fill="#1A1B23"/>
<path d="M12.0024 6.61719C8.59376 6.61719 5.83801 9.3794 5.83801 12.7853C5.83801 16.1961 8.59856 18.9535 12.0024 18.9535C15.4063 18.9535 18.1669 16.1864 18.1669 12.7853C18.1669 9.37459 15.4111 6.61719 12.0024 6.61719ZM12.0024 16.7869C9.794 16.7869 8.00325 14.9951 8.00325 12.7853C8.00325 10.5756 9.794 8.78372 12.0024 8.78372C14.2109 8.78372 16.0016 10.5756 16.0016 12.7853C16.0016 14.9951 14.2109 16.7869 12.0024 16.7869Z" fill="#1A1B23"/>
<path d="M18.4069 7.81785C19.2024 7.81785 19.8472 7.17263 19.8472 6.3767C19.8472 5.58077 19.2024 4.93555 18.4069 4.93555C17.6115 4.93555 16.9666 5.58077 16.9666 6.3767C16.9666 7.17263 17.6115 7.81785 18.4069 7.81785Z" fill="#1A1B23"/>
<path d="M0 12.7852C0 16.047 0.0144029 16.4553 0.0720144 17.7331C0.129626 19.0109 0.336067 19.8852 0.628926 20.649C0.936187 21.4369 1.34427 22.1094 2.0116 22.7723C2.67413 23.4353 3.34627 23.8532 4.13363 24.1559C4.89698 24.4537 5.77075 24.6555 7.04781 24.7131C8.32967 24.7707 8.73775 24.7852 11.9928 24.7852C15.2527 24.7852 15.6607 24.7707 16.9378 24.7131C18.2148 24.6555 19.0886 24.4489 19.852 24.1559C20.6393 23.8484 21.3115 23.4401 21.974 22.7723C22.6365 22.1094 23.0542 21.4369 23.3567 20.649C23.6543 19.8852 23.856 19.0109 23.9136 17.7331C23.9712 16.4505 23.9856 16.0422 23.9856 12.7852C23.9856 9.52335 23.9712 9.11502 23.9136 7.8372C23.856 6.55938 23.6495 5.68508 23.3567 4.92127C23.0494 4.13344 22.6413 3.4609 21.974 2.79797C21.3163 2.13023 20.6441 1.7171 19.8568 1.41446C19.0934 1.11662 18.2196 0.91486 16.9426 0.857214C15.6607 0.799568 15.2527 0.785156 11.9976 0.785156C8.73775 0.785156 8.32967 0.799568 7.05261 0.857214C5.77555 0.91486 4.90178 1.12143 4.13843 1.41446C3.35107 1.72191 2.67894 2.13023 2.0164 2.79797C1.35387 3.4657 0.936187 4.13344 0.633727 4.92127C0.336067 5.68508 0.129626 6.55938 0.0720144 7.8372C0.0144029 9.11502 0 9.52335 0 12.7852ZM2.16523 12.7852C2.16523 9.58099 2.17964 9.19669 2.23725 7.93328C2.29006 6.76114 2.4869 6.12223 2.65013 5.70429C2.86617 5.14705 3.13023 4.74352 3.55271 4.32079C3.97519 3.89805 4.37367 3.64344 4.93539 3.41766C5.35787 3.25433 5.9964 3.05737 7.16303 3.00453C8.42568 2.94689 8.80496 2.93247 12.012 2.93247C15.219 2.93247 15.5983 2.94689 16.861 3.00453C18.0324 3.05737 18.6709 3.25433 19.0886 3.41766C19.6455 3.63384 20.0488 3.89805 20.4713 4.32079C20.8938 4.74352 21.1482 5.14224 21.3739 5.70429C21.5371 6.12703 21.7339 6.76594 21.7868 7.93328C21.8444 9.19669 21.8588 9.57619 21.8588 12.7852C21.8588 15.9941 21.8444 16.3736 21.7868 17.637C21.7339 18.8092 21.5371 19.4481 21.3739 19.866C21.1578 20.4233 20.8938 20.8268 20.4713 21.2495C20.0488 21.6723 19.6503 21.9269 19.0886 22.1527C18.6661 22.316 18.0276 22.5129 16.861 22.5658C15.5983 22.6234 15.219 22.6378 12.012 22.6378C8.80496 22.6378 8.42568 22.6234 7.16303 22.5658C5.9916 22.5129 5.35307 22.316 4.93539 22.1527C4.37848 21.9365 3.97519 21.6723 3.55271 21.2495C3.13023 20.8268 2.87578 20.4281 2.65013 19.866C2.4869 19.4433 2.29006 18.8044 2.23725 17.637C2.17483 16.3736 2.16523 15.9893 2.16523 12.7852Z" fill="#1A1B23"/>
</svg>
