<svg width="163" height="42" viewBox="0 0 163 42" fill="none" xmlns="http://www.w3.org/2000/svg">
<path d="M161.488 16.409L155.029 23.4819L162.017 33.3667H158.165L152.762 25.7763L150.137 28.6054V33.3667H146.66V8.62891H150.137V23.9994L157.295 16.409H161.488Z" fill="#2032B0"/>
<path d="M129.548 16.4091V18.1687L129.77 17.9445C129.872 17.841 130.088 17.6742 130.417 17.4442C130.747 17.2027 131.093 16.9899 131.457 16.8059C131.832 16.6104 132.303 16.4379 132.872 16.2884C133.451 16.1274 134.031 16.0469 134.61 16.0469C136.633 16.0469 138.269 16.7197 139.519 18.0652C140.78 19.4108 141.411 21.2164 141.411 23.482V33.3668H137.917V23.482C137.917 22.2629 137.53 21.2509 136.758 20.4458C135.996 19.6408 135.047 19.2383 133.911 19.2383C132.582 19.2383 131.519 19.6753 130.724 20.5494C129.94 21.4119 129.548 22.6252 129.548 24.1893V33.3668H126.054V16.4091H129.548Z" fill="#2032B0"/>
<path d="M120.992 16.4101V33.3677H117.498V16.4101H120.992ZM120.753 9.59597C121.151 9.99849 121.35 10.5045 121.35 11.114C121.35 11.7236 121.151 12.2296 120.753 12.6321C120.356 13.0346 119.856 13.2359 119.253 13.2359C118.651 13.2359 118.151 13.0346 117.754 12.6321C117.356 12.2296 117.157 11.7236 117.157 11.114C117.157 10.5045 117.356 9.99849 117.754 9.59597C118.151 9.19345 118.651 8.99219 119.253 8.99219C119.856 8.99219 120.356 9.19345 120.753 9.59597Z" fill="#2032B0"/>
<path d="M114.004 33.3667H98.3066V8.62891H102.142V29.8302H114.004V33.3667Z" fill="#2032B0"/>
<path d="M82.9331 16.0468C83.558 16.0468 84.1659 16.1273 84.7568 16.2883C85.359 16.4378 85.8646 16.6276 86.2737 16.8576C86.6941 17.0761 87.0691 17.3061 87.3986 17.5476C87.7281 17.7776 87.961 17.9616 88.0974 18.0996L88.336 18.3584V8.62891H91.83V33.3667H88.336V31.4173C88.1769 31.5783 87.9497 31.7911 87.6542 32.0556C87.3702 32.3201 86.7566 32.6651 85.8135 33.0906C84.8704 33.5047 83.9103 33.7117 82.9331 33.7117C80.7174 33.7117 78.7971 32.8549 77.1723 31.1413C75.5474 29.4162 74.735 27.3289 74.735 24.8792C74.735 22.4296 75.5474 20.348 77.1723 18.6344C78.7971 16.9093 80.7174 16.0468 82.9331 16.0468ZM79.7459 28.8814C80.7799 29.9855 81.9559 30.5375 83.274 30.5375C84.6034 30.5375 85.7794 29.9855 86.802 28.8814C87.8247 27.7774 88.336 26.4491 88.336 24.8965C88.336 23.3324 87.8247 21.9983 86.802 20.8943C85.7794 19.7902 84.6034 19.2382 83.274 19.2382C81.9559 19.2382 80.7799 19.7902 79.7459 20.8943C78.7232 21.9983 78.2119 23.3324 78.2119 24.8965C78.2119 26.4491 78.7232 27.7774 79.7459 28.8814Z" fill="#2032B0"/>
<path d="M57.9638 29.8302H71.7523V33.3667H54.129V8.62891H71.4114V12.1653H57.9638V18.7034H68.6162V22.2398H57.9638V29.8302Z" fill="#2032B0"/>
<ellipse cx="20.2709" cy="20.6641" rx="20.2709" ry="20.5" fill="#2032B0"/>
<path fill-rule="evenodd" clip-rule="evenodd" d="M6.01794 20.5007C6.01794 15.4348 10.0788 11.3281 15.088 11.3281H16.5277C17.4024 11.3281 18.1114 12.0452 18.1114 12.9297C18.1114 13.8142 17.4024 14.5312 16.5277 14.5312H15.088C11.828 14.5312 9.18527 17.2039 9.18527 20.5007C9.18527 23.7976 11.828 26.4702 15.088 26.4702H16.5277C17.4024 26.4702 18.1114 27.1872 18.1114 28.0717C18.1114 28.9563 17.4024 29.6733 16.5277 29.6733H15.088C10.0788 29.6733 6.01794 25.5666 6.01794 20.5007ZM22.4305 12.9297C22.4305 12.0452 23.1395 11.3281 24.0141 11.3281H25.4538C30.4631 11.3281 34.5239 15.4348 34.5239 20.5007C34.5239 25.5666 30.4631 29.6733 25.4538 29.6733H24.0141C23.1395 29.6733 22.4305 28.9563 22.4305 28.0717C22.4305 27.1872 23.1395 26.4702 24.0141 26.4702H25.4538C28.7138 26.4702 31.3566 23.7976 31.3566 20.5007C31.3566 17.2039 28.7138 14.5312 25.4538 14.5312H24.0141C23.1395 14.5312 22.4305 13.8142 22.4305 12.9297Z" fill="white"/>
<path fill-rule="evenodd" clip-rule="evenodd" d="M14.2574 20.5C14.2574 19.6155 14.9665 18.8984 15.8411 18.8984H24.7672C25.6419 18.8984 26.3509 19.6155 26.3509 20.5C26.3509 21.3845 25.6419 22.1016 24.7672 22.1016H15.8411C14.9665 22.1016 14.2574 21.3845 14.2574 20.5Z" fill="white"/>
</svg>
