<svg width="24" height="25" viewBox="0 0 24 25" fill="none" xmlns="http://www.w3.org/2000/svg">
<path d="M12 15.572L15 12.572M15 12.572L12 9.57202M15 12.572H4M9 7.82061V7.77222C9 6.65211 9 6.09164 9.21799 5.66382C9.40973 5.28749 9.71547 4.98176 10.0918 4.79001C10.5196 4.57202 11.0801 4.57202 12.2002 4.57202H16.8002C17.9203 4.57202 18.4796 4.57202 18.9074 4.79001C19.2837 4.98176 19.5905 5.28749 19.7822 5.66382C20 6.09122 20 6.65102 20 7.76893V17.3756C20 18.4935 20 19.0525 19.7822 19.4799C19.5905 19.8562 19.2837 20.1625 18.9074 20.3542C18.48 20.572 17.921 20.572 16.8031 20.572H12.1969C11.079 20.572 10.5192 20.572 10.0918 20.3542C9.71547 20.1625 9.40973 19.8559 9.21799 19.4796C9 19.0518 9 18.4921 9 17.372V17.322" stroke="#EB152E" stroke-width="1.8" stroke-linecap="round" stroke-linejoin="round"/>
</svg>
