<svg width="24" height="24" viewBox="0 0 24 24" fill="none" xmlns="http://www.w3.org/2000/svg">
<path d="M15.5657 14.364C15.2533 14.0516 14.7467 14.0516 14.4343 14.364C14.1219 14.6764 14.1219 15.183 14.4343 15.4954L15.5657 14.364ZM20.4343 21.4954C20.7467 21.8078 21.2533 21.8078 21.5657 21.4954C21.8781 21.183 21.8781 20.6764 21.5657 20.364L20.4343 21.4954ZM10 16.1297C6.57583 16.1297 3.8 13.3539 3.8 9.92969H2.2C2.2 14.2375 5.69218 17.7297 10 17.7297V16.1297ZM3.8 9.92969C3.8 6.50552 6.57583 3.72969 10 3.72969V2.12969C5.69218 2.12969 2.2 5.62187 2.2 9.92969H3.8ZM10 3.72969C13.4242 3.72969 16.2 6.50552 16.2 9.92969H17.8C17.8 5.62187 14.3078 2.12969 10 2.12969V3.72969ZM16.2 9.92969C16.2 13.3539 13.4242 16.1297 10 16.1297V17.7297C14.3078 17.7297 17.8 14.2375 17.8 9.92969H16.2ZM14.4343 15.4954L20.4343 21.4954L21.5657 20.364L15.5657 14.364L14.4343 15.4954Z" fill="#1A1B23"/>
</svg>
