<svg width="24" height="25" viewBox="0 0 24 25" fill="none" xmlns="http://www.w3.org/2000/svg">
<rect y="0.785156" width="24" height="24" rx="6" fill="white"/>
<path fill-rule="evenodd" clip-rule="evenodd" d="M2.03705 12.078C8.23854 9.3761 12.3738 7.59486 14.4429 6.73425C20.3507 4.27703 21.5782 3.85018 22.3783 3.83609C22.5543 3.83299 22.9478 3.8766 23.2027 4.08341C23.4179 4.25804 23.4771 4.49394 23.5054 4.65951C23.5338 4.82508 23.569 5.20224 23.541 5.49695C23.2209 8.8607 21.8356 17.0236 21.1309 20.7911C20.8327 22.3852 20.2455 22.9197 19.6771 22.972C18.4417 23.0857 17.5036 22.1556 16.3071 21.3713C14.4348 20.144 13.3771 19.38 11.5597 18.1824C9.45943 16.7983 10.821 16.0376 12.0179 14.7944C12.3312 14.469 17.7742 9.5182 17.8795 9.06908C17.8927 9.01291 17.9049 8.80354 17.7806 8.69298C17.6562 8.58242 17.4726 8.62023 17.3401 8.6503C17.1523 8.69291 14.1613 10.6699 8.36707 14.5811C7.51808 15.1641 6.74909 15.4482 6.0601 15.4333C5.30055 15.4169 3.83948 15.0038 2.75332 14.6507C1.4211 14.2177 0.36228 13.9887 0.45448 13.2533C0.502503 12.8702 1.03003 12.4784 2.03705 12.078Z" fill="#1A1B23"/>
</svg>
