<svg width="44" height="40" viewBox="0 0 44 40" fill="none" xmlns="http://www.w3.org/2000/svg">
<path d="M22.0005 13.2501V22.2501M4.85303 27.1997C2.8068 30.7439 1.78398 32.5166 1.93682 33.9707C2.07013 35.2391 2.73581 36.3914 3.76758 37.141C4.95007 38.0001 6.99502 38.0001 11.0847 38.0001H32.9163C37.006 38.0001 39.0506 38.0001 40.2331 37.141C41.2649 36.3914 41.9308 35.2391 42.0642 33.9707C42.217 32.5166 41.1945 30.7439 39.1482 27.1997L28.2363 8.29969C26.1901 4.75553 25.1665 2.98375 23.8308 2.38905C22.6657 1.87032 21.3345 1.87032 20.1694 2.38905C18.8342 2.9835 17.8113 4.75529 15.7668 8.29651L4.85303 27.1997ZM22.1147 29.0001V29.2251L21.8884 29.2256V29.0001H22.1147Z" stroke="#D60814" stroke-width="3.5" stroke-linecap="round" stroke-linejoin="round"/>
</svg>
